<?xml version="1.0" encoding="UTF-8"?>
<svg id="Layer_1" data-name="Layer 1" xmlns="http://www.w3.org/2000/svg" viewBox="0 0 303.54 223.29">
  <defs>
    <style>
      .cls-1 {
        fill: #fff;
      }
    </style>
  </defs>
  <g>
    <path class="cls-1" d="m53.27,0c6.9,0,13.03.97,18.4,2.92,5.37,1.95,9.9,4.58,13.61,7.9,3.7,3.32,6.52,7.17,8.43,11.55,1.92,4.38,2.87,8.99,2.87,13.85,0,4.41-.45,8.29-1.34,11.64-.9,3.35-2.22,6.26-3.98,8.72-1.76,2.46-3.93,4.55-6.52,6.28s-5.54,3.16-8.86,4.31c15.46,5.37,23.19,15.87,23.19,31.52,0,7.41-1.34,13.86-4.02,19.35-2.68,5.49-6.28,10.06-10.78,13.7s-9.73,6.37-15.67,8.19c-5.94,1.82-12.14,2.73-18.59,2.73s-12.55-.72-17.73-2.16-9.77-3.67-13.8-6.71c-4.02-3.03-7.55-6.91-10.59-11.64-3.03-4.73-5.67-10.35-7.9-16.86l13.22-5.37c1.15-.51,2.28-.86,3.4-1.05,1.12-.19,2.22-.29,3.31-.29,2.04,0,3.88.4,5.51,1.2,1.63.8,2.86,1.96,3.69,3.5,2.87,5.3,5.92,9.15,9.15,11.55,3.22,2.4,7.01,3.59,11.35,3.59,3.32,0,6.21-.56,8.67-1.68,2.46-1.12,4.5-2.55,6.13-4.31,1.63-1.76,2.86-3.75,3.69-5.99.83-2.24,1.25-4.5,1.25-6.8,0-3-.21-5.7-.62-8.1-.42-2.4-1.58-4.46-3.5-6.18-1.92-1.72-4.81-3.05-8.67-3.98-3.87-.93-9.25-1.39-16.14-1.39v-20.5c5.81,0,10.51-.45,14.08-1.34,3.58-.89,6.34-2.12,8.29-3.69,1.95-1.56,3.24-3.46,3.88-5.7.64-2.24.96-4.69.96-7.38,0-5.49-1.33-9.73-3.98-12.7-2.65-2.97-6.69-4.46-12.12-4.46-2.24,0-4.28.32-6.13.96-1.85.64-3.51,1.5-4.98,2.59-1.47,1.09-2.73,2.36-3.78,3.83-1.05,1.47-1.9,3.07-2.54,4.79-1.02,2.87-2.32,4.95-3.88,6.23-1.57,1.28-3.69,1.92-6.37,1.92-.64,0-1.33-.03-2.06-.1-.74-.06-1.49-.16-2.25-.29l-15.71-2.78c1.02-6.96,2.99-13.03,5.89-18.21,2.91-5.17,6.52-9.49,10.83-12.94,4.31-3.45,9.25-6.02,14.8-7.71,5.56-1.69,11.53-2.54,17.92-2.54Z"/>
    <path class="cls-1" d="m151.01,141.14h-32.58V1.53h32.58v139.6Z"/>
    <path class="cls-1" d="m303.54,71.29c0,10.09-1.74,19.4-5.22,27.93-3.48,8.53-8.38,15.91-14.71,22.13-6.32,6.23-13.94,11.08-22.85,14.56-8.91,3.48-18.8,5.22-29.66,5.22h-54.23V1.53h54.23c10.86,0,20.74,1.76,29.66,5.27,8.91,3.51,16.53,8.37,22.85,14.56,6.32,6.2,11.23,13.56,14.71,22.09,3.48,8.53,5.22,17.81,5.22,27.83Zm-33.15,0c0-6.9-.9-13.13-2.68-18.68-1.79-5.56-4.36-10.27-7.71-14.13-3.35-3.86-7.46-6.83-12.31-8.91-4.86-2.07-10.38-3.11-16.58-3.11h-21.65v89.78h21.65c6.2,0,11.72-1.04,16.58-3.11,4.85-2.08,8.96-5.05,12.31-8.91,3.35-3.86,5.92-8.58,7.71-14.13,1.79-5.56,2.68-11.82,2.68-18.78Z"/>
  </g>
  <g>
    <path class="cls-1" d="m0,212.78c0-1.46.27-2.81.82-4.07.55-1.25,1.3-2.35,2.25-3.28.95-.93,2.07-1.67,3.37-2.22,1.3-.55,2.71-.82,4.25-.82s2.89.27,4.19.82c1.3.55,2.43,1.29,3.4,2.22.97.93,1.73,2.03,2.28,3.28.55,1.26.82,2.61.82,4.07s-.27,2.82-.82,4.1c-.55,1.28-1.31,2.38-2.28,3.31-.97.93-2.11,1.66-3.4,2.19-1.3.53-2.69.79-4.19.79s-2.96-.26-4.25-.79c-1.3-.53-2.42-1.25-3.37-2.19-.95-.93-1.7-2.03-2.25-3.31-.55-1.28-.82-2.64-.82-4.1Z"/>
    <path class="cls-1" d="m60.36,158.37c4.78,0,9.13.75,13.06,2.25,3.93,1.5,7.3,3.64,10.11,6.44,2.81,2.79,5,6.18,6.56,10.17,1.56,3.99,2.34,8.47,2.34,13.45s-.78,9.54-2.34,13.57c-1.56,4.03-3.75,7.45-6.56,10.26-2.81,2.81-6.18,4.98-10.11,6.5-3.93,1.52-8.28,2.28-13.06,2.28s-9.2-.76-13.15-2.28-7.35-3.68-10.2-6.5c-2.85-2.81-5.06-6.23-6.62-10.26-1.56-4.03-2.34-8.55-2.34-13.57s.78-9.46,2.34-13.45c1.56-3.99,3.77-7.38,6.62-10.17s6.26-4.94,10.2-6.44c3.95-1.5,8.33-2.25,13.15-2.25Zm0,50.95c4.33,0,7.52-1.53,9.56-4.58,2.04-3.06,3.07-7.7,3.07-13.94s-1.02-10.87-3.07-13.91c-2.04-3.04-5.23-4.55-9.56-4.55s-7.71,1.52-9.78,4.55-3.1,7.67-3.1,13.91,1.03,10.88,3.1,13.94c2.06,3.06,5.32,4.58,9.78,4.58Z"/>
    <path class="cls-1" d="m102.75,222.32v-62.98h11.66c1.17,0,2.16.26,2.95.79.79.53,1.35,1.32,1.67,2.37l1.09,3.64c1.21-1.13,2.47-2.19,3.77-3.16,1.3-.97,2.68-1.79,4.16-2.46,1.48-.67,3.08-1.19,4.8-1.58,1.72-.38,3.59-.58,5.62-.58,3.44,0,6.49.6,9.14,1.79,2.65,1.19,4.89,2.85,6.71,4.98s3.2,4.66,4.13,7.59c.93,2.94,1.4,6.12,1.4,9.56v40.02h-18.83v-40.02c0-3.08-.71-5.48-2.13-7.2-1.42-1.72-3.5-2.58-6.26-2.58-2.06,0-4.01.45-5.83,1.34-1.82.89-3.56,2.09-5.22,3.58v44.88h-18.83Z"/>
    <path class="cls-1" d="m200.16,158.37c4.17,0,7.99.65,11.45,1.94,3.46,1.3,6.44,3.18,8.93,5.65,2.49,2.47,4.43,5.5,5.83,9.08s2.1,7.64,2.1,12.18c0,1.42-.06,2.57-.18,3.46-.12.89-.34,1.6-.67,2.13-.32.53-.76.89-1.31,1.09-.55.2-1.24.3-2.1.3h-36.32c.61,5.26,2.21,9.08,4.8,11.45,2.59,2.37,5.93,3.55,10.02,3.55,2.19,0,4.07-.26,5.65-.79,1.58-.53,2.99-1.11,4.22-1.76,1.23-.65,2.37-1.23,3.4-1.76,1.03-.53,2.12-.79,3.25-.79,1.5,0,2.63.55,3.4,1.64l5.47,6.74c-1.94,2.23-4.04,4.04-6.29,5.44s-4.55,2.49-6.92,3.28c-2.37.79-4.74,1.34-7.11,1.64-2.37.3-4.63.46-6.77.46-4.41,0-8.55-.72-12.42-2.16-3.87-1.44-7.25-3.57-10.14-6.41-2.9-2.83-5.18-6.36-6.86-10.57-1.68-4.21-2.52-9.11-2.52-14.7,0-4.21.72-8.2,2.16-11.96,1.44-3.77,3.5-7.06,6.19-9.9,2.69-2.83,5.95-5.08,9.78-6.74,3.83-1.66,8.15-2.49,12.97-2.49Zm.36,13c-3.6,0-6.42,1.02-8.44,3.07-2.02,2.04-3.36,4.99-4.01,8.84h23.5c0-1.5-.19-2.95-.58-4.37-.39-1.42-1.01-2.68-1.88-3.8-.87-1.11-2.01-2.01-3.43-2.7-1.42-.69-3.14-1.03-5.16-1.03Z"/>
  </g>
</svg>