<svg width="100" height="106" viewBox="0 0 100 106" fill="none" xmlns="http://www.w3.org/2000/svg">
<g clip-path="url(#clip0_60_55)">
<path d="M83.0758 84.5547V0.477539H17.1987V16.1844V28.3155" stroke="#435FDB" stroke-width="2" stroke-miterlimit="10"/>
<path d="M17.1987 45.4209V59.9199V77.7179" stroke="#435FDB" stroke-width="2" stroke-miterlimit="10"/>
<path d="M24.5558 78.6062H24.4258C24.3519 78.5965 24.2846 78.5589 24.238 78.5011C24.1828 78.4213 24.1557 78.3257 24.161 78.229V51.7612H10.8286C10.8286 54.2247 10.8286 56.4908 10.8286 58.5596C10.8286 60.5711 10.8286 62.3932 10.8286 64.026C10.8286 67.3392 10.8286 70.4774 10.8286 73.4406V79.4655C10.8028 80.9633 11.0024 82.4565 11.4209 83.8959C11.7592 85.0407 12.2533 86.1345 12.8894 87.1471C13.3942 87.9491 13.9886 88.6922 14.6613 89.3623C16.2043 90.8359 18.0843 91.917 20.1406 92.5132C21.5259 92.9137 22.9637 93.1068 24.4066 93.0861H26.9536V78.6062H24.5558Z" fill="black"/>
<path d="M45.9386 78.6062V70.4043H32.6255V78.6062H26.135V93.0957H31.0751C33.2544 93.1254 35.4225 92.7813 37.4837 92.0788C38.101 91.8524 38.7054 91.5926 39.294 91.3007C41.544 92.5048 44.0656 93.1224 46.6223 93.0957H48.9334V78.6062H45.9386Z" fill="black"/>
<path d="M65.0007 78.6062V51.7612H51.6635V78.6062H48.1487V93.0956H50.2239C53.0637 93.1475 55.8661 92.4471 58.3418 91.0666C59.0779 91.5026 59.8572 91.8625 60.6673 92.1408C62.3983 92.7809 64.2319 93.1044 66.0793 93.0956H67.3648V78.6062H65.0007Z" fill="black"/>
<path d="M91.4824 75.8229C91.2368 74.4527 91.0009 73.0539 90.7216 71.6312C90.4424 70.2085 90.2401 68.9911 90.0379 67.9838L89.749 66.499L83.0804 68.5089L76.8789 70.3804L77.1196 71.6312C77.2737 72.4619 77.4567 73.4167 77.6685 74.4957C77.8804 75.5603 78.0633 76.5008 78.2222 77.3077C78.3811 78.1145 78.4678 78.5537 78.4822 78.6205H66.4451V93.0957H78.1067C80.0252 93.1241 81.9372 92.8666 83.7786 92.3318L83.8027 92.3032C85.9458 91.5402 87.8306 90.1973 89.2435 88.4266C89.9932 87.4447 90.5696 86.3437 90.9479 85.1706C91.3427 84.0194 91.6249 82.8331 91.7905 81.6282C91.8599 81.0404 91.8937 80.4489 91.8916 79.857C91.8824 78.5026 91.7454 77.152 91.4824 75.8229Z" fill="black"/>
<path d="M78.5594 100.271L72.7816 106L67.0278 100.271L72.7816 94.5708L78.5594 100.271Z" fill="black"/>
<path d="M67.3697 100.271L61.5919 106L55.8381 100.271L61.5919 94.5708L67.3697 100.271Z" fill="black"/>
<path d="M56.1798 100.271L50.402 106L44.6482 100.271L50.402 94.5708L56.1798 100.271Z" fill="black"/>
<path d="M44.9806 100.271L39.2027 106L33.449 100.271L39.2027 94.5708L44.9806 100.271Z" fill="black"/>
<path d="M28.2296 23.3027V42.0125C28.2483 42.1598 28.258 42.3081 28.2585 42.4565C28.3026 43.1497 28.0768 43.8332 27.6277 44.3662C27.1802 44.7626 26.6437 45.0474 26.0629 45.1969C24.8698 45.5087 23.6363 45.6407 22.4036 45.5884H19.3028C18.8743 45.5884 18.4698 45.5884 18.0846 45.5406C17.7765 45.5406 17.478 45.4833 17.1987 45.4404C15.8409 45.2271 14.8442 44.7815 14.2087 44.1036C13.7739 43.6634 13.4893 43.099 13.395 42.49C13.342 41.9744 13.3131 41.5351 13.3131 41.2248C13.3131 40.9145 13.3131 40.7474 13.342 40.4944V40.3655C13.4961 37.902 14.3804 34.9071 15.995 31.3806L16.5198 30.2109L4.35746 24.7875L3.85189 25.9619C1.58249 30.9079 0.316176 35.4386 0.0529636 39.5539C0 39.9358 0 40.3607 0 40.8286C0 41.6179 0.0433338 42.5297 0.130001 43.5641C0.309853 45.4297 0.733916 47.264 1.3915 49.021C2.16253 51.0922 3.34091 52.9908 4.8582 54.6067C6.52601 56.3473 8.5639 57.6976 10.8238 58.5597C11.8104 58.9458 12.8284 59.2476 13.8668 59.462C14.9647 59.6988 16.0781 59.8583 17.1987 59.9394C17.8824 59.9919 18.5806 60.0158 19.3028 60.0158H22.4036C22.9525 60.0158 23.5303 60.0158 24.1418 59.9537C24.7532 59.8917 25.5284 59.8439 26.2747 59.7532C26.9296 59.6721 27.5892 59.5622 28.2536 59.4142C29.0544 59.2399 29.8452 59.0231 30.6226 58.765C32.1248 58.2623 33.548 57.5519 34.85 56.6548C39.299 53.5325 41.5218 48.5849 41.5186 41.812V23.3027H28.2296Z" fill="#435FDB"/>
<path d="M23.3279 22.8012L17.1842 28.8691L11.0645 22.8012L17.1842 16.7046L23.3279 22.8012Z" fill="#435FDB"/>
</g>
<defs>
<clipPath id="clip0_60_55">
<rect width="100" height="106" fill="white"/>
</clipPath>
</defs>
</svg>
