<?xml version="1.0" encoding="UTF-8"?><svg id="a" xmlns="http://www.w3.org/2000/svg" viewBox="0 0 207.69 222.03"><polyline points="172.54 177.11 172.54 1 35.72 1 35.72 33.9 35.72 59.31" style="fill:none; stroke:#fff; stroke-miterlimit:10; stroke-width:2px;"/><polyline points="35.72 95.14 35.72 125.51 35.72 162.79" style="fill:#fff; stroke:#435fdb; stroke-miterlimit:10; stroke-width:2px;"/><path d="M50.96,164.65s-.13,0-.27-.02c-.15-.02-.28-.09-.39-.22-.1-.13-.16-.32-.16-.57v-55.42H22.49c0,5.16,0,9.91-.01,14.24,0,4.21-.01,8.03-.02,11.45-.02,6.94-.03,13.52-.03,19.72v12.62c0,3.53,.41,6.62,1.23,9.28,.82,2.65,1.83,4.92,3.05,6.81,1.22,1.9,2.45,3.44,3.68,4.64,1.21,1.2,2.75,2.4,4.64,3.6,1.89,1.2,4.14,2.2,6.74,3,2.6,.8,5.55,1.2,8.86,1.2h5.29v-30.33h-4.96Z" style="fill:#fff;"/><path d="M95.41,164.65v-17.18h-27.65v17.18h-13.48v30.33h10.26c4.91,0,9.34-.71,13.31-2.13,1.27-.47,2.52-1.01,3.76-1.63,4.62,2.51,9.69,3.76,15.22,3.76h4.8v-30.33h-6.22Z" style="fill:#fff;"/><path d="M135.01,164.65l-.05-56.23h-27.66v56.23h-7.31v30.33h4.31c6.33,0,11.95-1.42,16.86-4.25,1.49,.91,3.11,1.67,4.85,2.29,3.49,1.31,7.24,1.96,11.24,1.96h2.67v-30.33h-4.91Z" style="fill:#fff;"/><path d="M189.99,158.82c-.51-2.87-1.03-5.8-1.58-8.78-.55-2.99-1.02-5.53-1.42-7.64l-.6-3.11-13.85,4.21-12.88,3.92,.5,2.62c.32,1.74,.7,3.73,1.14,5.97,.44,2.23,.82,4.2,1.15,5.89,.32,1.69,.51,2.61,.54,2.75h-24.98v30.33h24.22c4.47,0,8.4-.53,11.78-1.58l.05-.06c4.19-1.41,7.95-4.12,11.3-8.12,1.49-1.93,2.67-4.2,3.54-6.82s1.45-5.09,1.75-7.42c.14-1.16,.21-2.4,.21-3.71,0-2.58-.29-5.4-.87-8.45Z" style="fill:#fff;"/><polygon points="163.16 210.03 151.16 222.03 139.21 210.03 151.16 198.09 163.16 210.03" style="fill:#fff;"/><polygon points="139.92 210.03 127.92 222.03 115.97 210.03 127.92 198.09 139.92 210.03" style="fill:#fff;"/><polygon points="116.68 210.03 104.68 222.03 92.73 210.03 104.68 198.09 116.68 210.03" style="fill:#fff;"/><polygon points="93.42 210.03 81.42 222.03 69.47 210.03 81.42 198.09 93.42 210.03" style="fill:#fff;"/><path d="M58.63,48.81v39.17c.04,.33,.06,.63,.06,.93,0,1.7-.44,3.03-1.31,3.98-.55,.61-1.63,1.2-3.25,1.74-1.61,.55-4.15,.82-7.6,.82h-6.44c-.89,0-1.73-.03-2.53-.1-.64-.05-1.26-.12-1.84-.21-2.82-.45-4.89-1.38-6.21-2.8-1.02-1.16-1.58-2.28-1.69-3.35-.11-1.08-.17-1.96-.17-2.65,0-.54,.02-1.05,.06-1.53v-.27c.32-5.16,2.16-11.43,5.51-18.82l1.09-2.45-25.26-11.35-1.09,2.46C3.27,64.74,.65,74.23,.11,82.85c-.08,.8-.11,1.69-.11,2.67,0,1.64,.09,3.55,.27,5.73,.29,3.53,1.16,7.34,2.62,11.43,1.45,4.09,3.85,7.99,7.2,11.7,3.45,3.64,7.59,6.4,12.39,8.28,1.99,.79,4.09,1.42,6.32,1.89,2.19,.47,4.5,.79,6.92,.96,1.42,.11,2.87,.16,4.37,.16h6.44c1.14,0,2.34-.04,3.61-.13,1.4-.08,2.88-.23,4.43-.42,1.36-.17,2.73-.4,4.11-.71,1.62-.35,3.26-.81,4.92-1.36,3.05-1.02,5.98-2.49,8.78-4.42,9.24-6.54,13.85-16.91,13.85-31.09V48.81h-27.6Z" style="fill:#fff;"/><polygon points="48.45 47.76 35.69 60.47 22.98 47.76 35.69 35 48.45 47.76" style="fill:#fff;"/></svg>